<?xml version="1.0" encoding="UTF-8"?>
<svg width="194px" height="24px" viewBox="0 0 194 24" version="1.1" xmlns="http://www.w3.org/2000/svg" xmlns:xlink="http://www.w3.org/1999/xlink">
    <title>Slice</title>
    <g id="login" stroke="none" stroke-width="1" fill="none" fill-rule="evenodd">
        <g transform="translate(-98.000000, -94.000000)" id="Icon">
            <g transform="translate(98.000000, 94.000000)">
                <path d="M26.3799,23 L20.9159,23 L19.6559,13.728 C19.5679,13.073 19.4879,12.346 19.4149,11.545 C19.3409,10.744 19.2759,9.87 19.2169,8.923 C19.0799,9.831 18.8119,10.964 18.4109,12.321 C18.3229,12.604 18.2599,12.814 18.2209,12.951 L15.3059,23 L11.4089,23 L8.4939,12.951 C8.4549,12.814 8.3969,12.604 8.3179,12.321 C7.9079,10.964 7.6399,9.836 7.5129,8.937 C7.4539,9.748 7.3859,10.551 7.3079,11.347 C7.2299,12.143 7.1369,12.937 7.0289,13.728 L5.7699,23 L0.3349,23 L3.6459,1.555 L9.4319,1.555 L12.6689,12.614 C12.6889,12.692 12.7279,12.819 12.7859,12.995 C13.0889,13.981 13.2789,14.826 13.3579,15.529 C13.3969,15.148 13.4699,14.726 13.5769,14.262 C13.6849,13.798 13.8309,13.239 14.0169,12.585 L17.2829,1.555 L23.0839,1.555 L26.3799,23 Z" id="Fill-1" fill="#4E89AE"></path>
                <path d="M39.3584,13.6982 C39.2604,12.8582 38.9414,12.1842 38.3994,11.6772 C37.8574,11.1692 37.1904,10.9152 36.3994,10.9152 C35.5494,10.9152 34.8734,11.1472 34.3704,11.6112 C33.8674,12.0742 33.5334,12.7702 33.3674,13.6982 L39.3584,13.6982 Z M44.5004,16.6422 L33.2504,16.6422 C33.2594,17.7852 33.5524,18.6662 34.1294,19.2862 C34.7054,19.9062 35.5204,20.2172 36.5754,20.2172 C37.3664,20.2172 38.0324,20.0682 38.5744,19.7702 C39.1164,19.4722 39.5294,19.0302 39.8124,18.4442 L43.7384,20.0262 C43.2694,21.1592 42.4394,22.0332 41.2484,22.6482 C40.0564,23.2632 38.5964,23.5712 36.8684,23.5712 C34.2904,23.5712 32.2224,22.8562 30.6644,21.4252 C29.1074,19.9942 28.3284,18.1072 28.3284,15.7632 C28.3284,13.4592 29.1074,11.5452 30.6644,10.0212 C32.2224,8.4982 34.1924,7.7362 36.5754,7.7362 C39.0264,7.7362 40.9604,8.5082 42.3764,10.0512 C43.7924,11.5942 44.5004,13.7082 44.5004,16.3932 L44.5004,16.6422 Z" id="Fill-3" fill="#4E89AE"></path>
                <path d="M58.7969,15.6172 C58.7969,14.4652 58.4919,13.5562 57.8809,12.8922 C57.2709,12.2282 56.4389,11.8962 55.3839,11.8962 C54.3289,11.8962 53.4989,12.2282 52.8939,12.8922 C52.2879,13.5562 51.9849,14.4652 51.9849,15.6172 C51.9849,16.7792 52.2859,17.6902 52.8859,18.3492 C53.4869,19.0082 54.3189,19.3382 55.3839,19.3382 C56.4389,19.3382 57.2709,19.0062 57.8809,18.3422 C58.4919,17.6782 58.7969,16.7692 58.7969,15.6172 L58.7969,15.6172 Z M63.4259,0.2952 L63.4259,23.0002 L58.6209,23.0002 L58.6209,20.5972 C57.9569,21.5942 57.2099,22.3382 56.3799,22.8312 C55.5499,23.3252 54.6269,23.5712 53.6109,23.5712 C51.5309,23.5712 49.8759,22.8532 48.6459,21.4182 C47.4149,19.9822 46.7999,18.0492 46.7999,15.6172 C46.7999,13.2632 47.4129,11.3622 48.6379,9.9112 C49.8639,8.4612 51.4629,7.7362 53.4359,7.7362 C54.6859,7.7362 55.7039,7.9612 56.4899,8.4102 C57.2759,8.8592 57.9769,9.6112 58.5919,10.6662 C58.5329,10.3142 58.4889,9.9162 58.4599,9.4722 C58.4309,9.0282 58.4159,8.5472 58.4159,8.0292 L58.4159,0.2952 L63.4259,0.2952 Z" id="Fill-5" fill="#4E89AE"></path>
                <path d="M67.439,23 L72.668,23 L72.668,8.205 L67.439,8.205 L67.439,23 Z M67.176,3.591 C67.176,2.8 67.457,2.126 68.018,1.569 C68.58,1.013 69.256,0.734 70.047,0.734 C70.867,0.734 71.553,1.008 72.105,1.555 C72.657,2.102 72.933,2.78 72.933,3.591 C72.933,4.401 72.652,5.09 72.09,5.656 C71.529,6.223 70.848,6.506 70.047,6.506 C69.266,6.506 68.592,6.218 68.025,5.642 C67.459,5.065 67.176,4.382 67.176,3.591 L67.176,3.591 Z" id="Fill-7" fill="#FFA372"></path>
                <path d="M92.5615,2.3896 L92.5615,8.7766 C91.7605,7.8876 90.9625,7.2356 90.1665,6.8206 C89.3705,6.4056 88.5185,6.1986 87.6105,6.1986 C85.9305,6.1986 84.5705,6.7716 83.5305,7.9196 C82.4905,9.0666 81.9705,10.5636 81.9705,12.4096 C81.9705,14.1276 82.5005,15.5536 83.5605,16.6866 C84.6195,17.8196 85.9695,18.3856 87.6105,18.3856 C88.5185,18.3856 89.3705,18.1786 90.1665,17.7636 C90.9625,17.3476 91.7605,16.6916 92.5615,15.7926 L92.5615,22.1946 C91.6335,22.6436 90.7105,22.9806 89.7925,23.2046 C88.8745,23.4296 87.9475,23.5416 87.0095,23.5416 C85.8375,23.5416 84.7565,23.4026 83.7655,23.1246 C82.7735,22.8466 81.8635,22.4236 81.0335,21.8576 C79.4315,20.7836 78.2105,19.4306 77.3715,17.7996 C76.5315,16.1686 76.1115,14.3326 76.1115,12.2916 C76.1115,10.6516 76.3775,9.1596 76.9095,7.8166 C77.4415,6.4736 78.2455,5.2556 79.3195,4.1616 C80.3345,3.1176 81.4795,2.3356 82.7545,1.8186 C84.0285,1.3006 85.4475,1.0416 87.0095,1.0416 C87.9475,1.0416 88.8745,1.1546 89.7925,1.3786 C90.7105,1.6036 91.6335,1.9406 92.5615,2.3896" id="Fill-9" fill="#4E89AE"></path>
                <path d="M105.9941,15.6465 C105.9941,14.5425 105.7161,13.6735 105.1591,13.0395 C104.6021,12.4045 103.8501,12.0865 102.9031,12.0865 C101.9461,12.0865 101.1911,12.4045 100.6401,13.0395 C100.0881,13.6735 99.8121,14.5425 99.8121,15.6465 C99.8121,16.7505 100.0861,17.6165 100.6331,18.2465 C101.1801,18.8765 101.9361,19.1915 102.9031,19.1915 C103.8601,19.1915 104.6141,18.8765 105.1661,18.2465 C105.7181,17.6165 105.9941,16.7505 105.9941,15.6465 M111.1801,15.6465 C111.1801,16.7105 110.9721,17.7215 110.5561,18.6785 C110.1411,19.6355 109.5391,20.4955 108.7481,21.2565 C107.9471,22.0185 107.0511,22.5945 106.0601,22.9855 C105.0681,23.3755 104.0161,23.5715 102.9031,23.5715 C101.7701,23.5715 100.7081,23.3755 99.7171,22.9855 C98.7261,22.5945 97.8401,22.0185 97.0581,21.2565 C96.2771,20.5145 95.6811,19.6625 95.2711,18.7005 C94.8611,17.7385 94.6561,16.7205 94.6561,15.6465 C94.6561,14.5625 94.8591,13.5425 95.2641,12.5845 C95.6691,11.6275 96.2671,10.7685 97.0581,10.0065 C97.8301,9.2545 98.7111,8.6885 99.7031,8.3075 C100.6931,7.9265 101.7611,7.7365 102.9031,7.7365 C104.0461,7.7365 105.1101,7.9265 106.0971,8.3075 C107.0831,8.6885 107.9671,9.2545 108.7481,10.0065 C109.5491,10.7785 110.1541,11.6425 110.5641,12.5995 C110.9741,13.5565 111.1801,14.5725 111.1801,15.6465" id="Fill-10" fill="#4E89AE"></path>
                <path d="M114.1826,23 L114.1826,8.205 L118.9576,8.205 L118.9576,11.208 C119.6516,10.007 120.4526,9.128 121.3606,8.571 C122.2686,8.015 123.3576,7.736 124.6266,7.736 C125.5836,7.736 126.4356,7.89 127.1836,8.198 C127.9296,8.505 128.5376,8.947 129.0066,9.523 C129.3976,10.021 129.6756,10.627 129.8416,11.34 C130.0076,12.053 130.0906,13.117 130.0906,14.533 L130.0906,23 L124.8616,23 L124.8616,15.075 C124.8616,13.894 124.6676,13.034 124.2836,12.497 C123.8966,11.96 123.2796,11.691 122.4296,11.691 C121.3456,11.691 120.5546,12.092 120.0566,12.893 C119.5586,13.693 119.3096,14.992 119.3096,16.789 L119.3096,23 L114.1826,23 Z" id="Fill-11" fill="#4E89AE"></path>
                <path d="M133.7676,23 L133.7676,8.205 L138.5426,8.205 L138.5426,11.208 C139.2366,10.007 140.0376,9.128 140.9456,8.571 C141.8536,8.015 142.9426,7.736 144.2116,7.736 C145.1686,7.736 146.0206,7.89 146.7686,8.198 C147.5146,8.505 148.1226,8.947 148.5916,9.523 C148.9826,10.021 149.2606,10.627 149.4266,11.34 C149.5926,12.053 149.6756,13.117 149.6756,14.533 L149.6756,23 L144.4466,23 L144.4466,15.075 C144.4466,13.894 144.2526,13.034 143.8686,12.497 C143.4816,11.96 142.8646,11.691 142.0146,11.691 C140.9306,11.691 140.1396,12.092 139.6416,12.893 C139.1436,13.693 138.8946,14.992 138.8946,16.789 L138.8946,23 L133.7676,23 Z" id="Fill-12" fill="#4E89AE"></path>
                <path d="M163.5479,13.6982 C163.4499,12.8582 163.1309,12.1842 162.5879,11.6772 C162.0469,11.1692 161.3799,10.9152 160.5889,10.9152 C159.7389,10.9152 159.0629,11.1472 158.5609,11.6112 C158.0569,12.0742 157.7229,12.7702 157.5569,13.6982 L163.5479,13.6982 Z M168.6899,16.6422 L157.4399,16.6422 C157.4489,17.7852 157.7419,18.6662 158.3189,19.2862 C158.8949,19.9062 159.7099,20.2172 160.7649,20.2172 C161.5559,20.2172 162.2229,20.0682 162.7639,19.7702 C163.3069,19.4722 163.7189,19.0302 164.0019,18.4442 L167.9279,20.0262 C167.4589,21.1592 166.6289,22.0332 165.4379,22.6482 C164.2459,23.2632 162.7859,23.5712 161.0579,23.5712 C158.4799,23.5712 156.4109,22.8562 154.8539,21.4252 C153.2959,19.9942 152.5179,18.1072 152.5179,15.7632 C152.5179,13.4592 153.2959,11.5452 154.8539,10.0212 C156.4109,8.4982 158.3819,7.7362 160.7649,7.7362 C163.2159,7.7362 165.1499,8.5082 166.5659,10.0512 C167.9819,11.5942 168.6899,13.7082 168.6899,16.3932 L168.6899,16.6422 Z" id="Fill-13" fill="#4E89AE"></path>
                <path d="M182.2979,13.0684 C181.7899,12.6194 181.3019,12.2924 180.8329,12.0874 C180.3639,11.8814 179.8709,11.7794 179.3539,11.7794 C178.3189,11.7794 177.4949,12.1214 176.8859,12.8044 C176.2749,13.4884 175.9699,14.4164 175.9699,15.5884 C175.9699,16.7204 176.2869,17.6244 176.9219,18.2974 C177.5569,18.9714 178.4109,19.3084 179.4849,19.3084 C180.0129,19.3084 180.5079,19.2034 180.9719,18.9934 C181.4359,18.7834 181.8779,18.4594 182.2979,18.0194 L182.2979,22.5464 C181.6729,22.8974 181.0479,23.1564 180.4229,23.3224 C179.7979,23.4884 179.1529,23.5714 178.4889,23.5714 C176.2139,23.5714 174.3699,22.8414 172.9599,21.3814 C171.5479,19.9214 170.8429,18.0004 170.8429,15.6174 C170.8429,13.3024 171.5629,11.4104 173.0029,9.9414 C174.4439,8.4714 176.2919,7.7364 178.5479,7.7364 C179.2999,7.7364 179.9789,7.8094 180.5839,7.9564 C181.1899,8.1024 181.7609,8.3374 182.2979,8.6594 L182.2979,13.0684 Z" id="Fill-14" fill="#4E89AE"></path>
                <polygon id="Fill-15" fill="#4E89AE" points="186.3115 23 186.3115 11.896 184.0995 11.896 184.0995 8.205 186.3115 8.205 186.3115 3.796 191.4535 3.796 191.4535 8.205 193.6655 8.205 193.6655 11.896 191.4535 11.896 191.4535 23"></polygon>
            </g>
        </g>
    </g>
</svg>