<?xml version="1.0" encoding="UTF-8"?>
<svg width="26px" height="26px" viewBox="0 0 26 26" version="1.1" xmlns="http://www.w3.org/2000/svg" xmlns:xlink="http://www.w3.org/1999/xlink">
    <title>emoji</title>
    <g id="\f1 \'d2\'bd\'c9\'fa\f0 " stroke="none" stroke-width="1" fill="none" fill-rule="evenodd">
        <g id="\f1 \'d2\'bd\'c9\'fa\'b7\'a2\'b4\'a6\'b7\'bd\f0 " transform="translate(-246.000000, -585.000000)">
            <rect id="\f1 \'be\'d8\'d0\'ce\f0 " stroke="#979797" fill="#FFFFFF" fill-rule="nonzero" x="228" y="61" width="641" height="741"></rect>
            <g id="emoji" transform="translate(246.280000, 585.177000)">
                <circle id="\f1 \'cd\'d6\'d4\'b2\'d0\'ce\f0 " stroke="#554C5F" fill="#FFFFFF" cx="12.72" cy="12.823" r="11.5"></circle>
                <path d="M7.72,10.823 C7.72,11.3751559 8.16751412,11.8228175 8.71966964,11.823 C9.27182515,11.8231824 9.71963468,11.3758165 9.72,10.823661 C9.72036487,10.2715054 9.27314734,9.82354777 8.72099206,9.823 C8.1685466,9.823 7.72054752,10.2705549 7.72,10.823 Z" id="Path_1523" fill="#554C5F" fill-rule="nonzero"></path>
                <path d="M16.72,10.8219948 C16.7195997,11.2266312 16.9630913,11.5916289 17.33685,11.7466618 C17.7106088,11.9016946 18.1409605,11.8162031 18.4270818,11.5300818 C18.7132031,11.2439605 18.7986946,10.8136088 18.6436618,10.43985 C18.4886289,10.0660913 18.1236312,9.82259967 17.7189948,9.823 C17.454045,9.823 17.1999469,9.92825138 17.0125992,10.1155992 C16.8252514,10.3029469 16.72,10.557045 16.72,10.8219948 Z" id="Path_1524" fill="#554C5F" fill-rule="nonzero"></path>
                <path d="M16.72,15.823 C15.8220428,17.0909852 14.3462889,17.8395326 12.777566,17.8227228 L12.777566,17.8227228 C11.1831707,17.8142544 9.6835103,17.0751648 8.72,15.823" id="Path_1525" stroke="#554C5F" stroke-linecap="round"></path>
            </g>
        </g>
    </g>
</svg>