<?xml version="1.0" encoding="UTF-8"?>
<svg width="23px" height="23px" viewBox="0 0 23 23" version="1.1" xmlns="http://www.w3.org/2000/svg" xmlns:xlink="http://www.w3.org/1999/xlink">
    <title>Group</title>
    <g id="\f1 \'d2\'bd\'c9\'fa\f0 " stroke="none" stroke-width="1" fill="none" fill-rule="evenodd">
        <g id="\f1 \'d2\'bd\'c9\'fa\'b7\'a2\'b4\'a6\'b7\'bd\f0 " transform="translate(-359.000000, -588.000000)">
            <rect id="\f1 \'be\'d8\'d0\'ce\f0 " stroke="#979797" fill="#FFFFFF" fill-rule="nonzero" x="228" y="61" width="641" height="741"></rect>
            <g id="Group" transform="translate(359.000000, 588.000000)">
                <rect id="Rectangle" x="0" y="0" width="22.6849315" height="22.6849315"></rect>
                <path d="M14.5739343,2.80398357 C15.722674,2.80398357 16.8024137,3.25138083 17.6146603,4.0636274 C18.4269069,4.87618905 18.8739891,5.95561371 18.8739891,7.10435343 C18.8739891,8.25309316 18.4269069,9.33283289 17.6146603,10.1450795 L17.6146603,10.1450795 L16.0229343,11.7368055 C18.2507836,11.8798466 20.0211535,13.7327644 20.0211535,15.9959014 C20.0211535,18.3522987 18.1042767,20.2691754 15.7478795,20.2691754 C13.4844274,20.2691754 11.6315096,18.4991206 11.4884685,16.2709562 L11.4884685,16.2709562 L9.86113974,17.8986 C9.04920823,18.7108466 7.9694685,19.1582439 6.82072878,19.1582439 C5.67198905,19.1582439 4.59224932,18.7108466 3.78000274,17.8986 C2.96775617,17.0860384 2.52067398,16.0066137 2.52067398,14.857874 C2.52067398,13.7091343 2.96775617,12.6293945 3.78000274,11.817148 L3.78000274,11.817148 L11.5335233,4.0636274 C12.3454548,3.25138083 13.4251945,2.80398357 14.5739343,2.80398357 Z M19.374948,16.3109699 L12.120811,16.3109699 C12.2814959,18.1727096 13.8454959,19.6390384 15.7478795,19.6390384 C17.650263,19.6390384 19.214263,18.1727096 19.374948,16.3109699 L19.374948,16.3109699 Z M7.7794822,8.7086822 L4.22550959,12.2626548 C2.79478357,13.6936959 2.79478357,16.0220521 4.22550959,17.4530932 C5.65655069,18.8838192 7.98459179,18.8841343 9.41563289,17.4530932 L9.41563289,17.4530932 L11.5306877,15.3377233 C11.6390712,14.6429973 11.914126,14.0040384 12.3152082,13.4621206 C10.4950575,12.2163397 8.93924933,10.5855452 7.7794822,8.7086822 L7.7794822,8.7086822 Z M15.7478795,12.3530795 C13.8454959,12.3530795 12.2814959,13.8194082 12.120811,15.6808329 L12.120811,15.6808329 L19.374948,15.6808329 C19.214263,13.8194082 17.650263,12.3530795 15.7478795,12.3530795 Z M17.1691534,4.50913425 C15.7377973,3.07809315 13.4097562,3.07840822 11.9790302,4.50913425 L11.9790302,4.50913425 L8.23664659,8.25120275 C9.36900275,10.1258603 10.9125233,11.7512986 12.7247973,12.9791206 C13.3517836,12.3511891 14.1737973,11.9217507 15.0897014,11.7790247 L15.0897014,11.7790247 L17.1691534,9.69957262 C18.5998795,8.26853152 18.5998795,5.94017535 17.1691534,4.50913425 Z" id="Shape" fill="#000000" fill-rule="nonzero"></path>
            </g>
        </g>
    </g>
</svg>