<?xml version="1.0" encoding="UTF-8"?>
<svg width="25px" height="23px" viewBox="0 0 25 23" version="1.1" xmlns="http://www.w3.org/2000/svg" xmlns:xlink="http://www.w3.org/1999/xlink">
    <title>pic</title>
    <g id="\f1 \'d2\'bd\'c9\'fa\f0 " stroke="none" stroke-width="1" fill="none" fill-rule="evenodd">
        <g id="\f1 \'d2\'bd\'c9\'fa\'b7\'a2\'b4\'a6\'b7\'bd\f0 " transform="translate(-287.000000, -587.000000)">
            <rect id="\f1 \'be\'d8\'d0\'ce\f0 " stroke="#979797" fill="#FFFFFF" fill-rule="nonzero" x="228" y="61" width="641" height="741"></rect>
            <g id="pic" transform="translate(288.363000, 588.279000)">
                <g id="Rectangle_16" transform="translate(0.137000, 0.221000)">
                    <rect id="\f1 \'be\'d8\'d0\'ce\f0 " x="0" y="0" width="22" height="20" rx="3"></rect>
                    <rect id="\f1 \'be\'d8\'d0\'ce\f0 " stroke="#554C5F" x="0.5" y="0.5" width="21" height="19" rx="2.5"></rect>
                </g>
                <path d="M3.68799898,6.037 C3.6891043,7.1219785 4.56935317,8.00073556 5.65433198,8.00000001 C6.73931079,7.99926353 7.6183666,7.11931301 7.61799898,6.03433401 C7.61763114,4.94935501 6.73797906,4.07 5.653,4.07 C5.13150289,4.07 4.63139412,4.27730044 4.26282759,4.6462421 C3.89426106,5.01518376 3.68746921,5.51550316 3.68799898,6.037 L3.68799898,6.037 Z" id="Path_1521" fill="#554C5F" fill-rule="nonzero"></path>
                <path d="M4.099,14.628 C4.3179281,14.1406815 4.56570056,13.6668417 4.841,13.209 C5.44967023,11.9733407 6.48463864,10.9994617 7.755,10.467 C8.74641652,10.150245 9.83121599,10.3718259 10.619,11.052 C11.1211243,11.5036902 11.7994004,11.7062922 12.467,11.604 C12.599,11.582 12.74,11.374 12.834,11.204 C13.0464361,10.7749373 13.2249808,10.329913 13.368,9.873 C13.6262037,8.90273234 14.0923052,8.00021519 14.734,7.228 C15.4064522,6.66585907 16.3110838,6.46760923 17.157,6.697 C17.3757529,6.73335915 17.5923975,6.78142823 17.806,6.841" id="Path_1522" stroke="#554C5F" stroke-linecap="round"></path>
            </g>
        </g>
    </g>
</svg>