<?xml version="1.0" encoding="UTF-8"?>
<svg width="28px" height="26px" viewBox="0 0 28 26" version="1.1" xmlns="http://www.w3.org/2000/svg" xmlns:xlink="http://www.w3.org/1999/xlink">
    <title>Group</title>
    <g id="\f1 \'d2\'bd\'c9\'fa\f0 " stroke="none" stroke-width="1" fill="none" fill-rule="evenodd">
        <g id="\f1 \'d2\'bd\'c9\'fa\'b7\'a2\'b4\'a6\'b7\'bd\f0 " transform="translate(-322.000000, -586.000000)">
            <rect id="\f1 \'be\'d8\'d0\'ce\f0 " stroke="#979797" fill="#FFFFFF" fill-rule="nonzero" x="228" y="61" width="641" height="741"></rect>
            <g id="Group" transform="translate(322.972973, 586.000000)">
                <g transform="translate(0.027027, 0.000000)">
                    <rect id="Rectangle" x="0" y="0" width="25.6535973" height="25.6535973"></rect>
                    <g transform="translate(2.850400, 2.529730)" fill="#000000" fill-rule="nonzero" id="Shape">
                        <path d="M13.1830986,0.320669966 C16.9242482,0.320669966 19.9527979,3.34921965 19.9527979,7.09036925 C19.9527979,10.8315189 16.9242482,13.8600685 13.1830986,13.8600685 C11.4372288,13.8600685 9.86950896,13.1830986 8.65808909,12.1141987 L8.65808909,12.1141987 L6.87658927,13.8956985 L7.83859917,14.8577084 C7.98111916,15.0002284 7.98111916,15.2140084 7.83859917,15.3565284 L7.83859917,15.3565284 L3.45610964,19.7746479 C3.06417968,20.1665779 2.56535973,20.3803579 2.03090979,20.3803579 C1.49645984,20.3803579 0.997639895,20.1665779 0.605709936,19.7746479 C-0.178149981,18.990788 -0.178149981,17.7081081 0.605709936,16.9242482 L0.605709936,16.9242482 L4.98819947,12.5061287 C5.13071946,12.3636087 5.34449944,12.3636087 5.48701942,12.5061287 L5.48701942,12.5061287 L6.37776933,13.3968786 L8.15926914,11.6153788 C7.09036925,10.4039589 6.41339932,8.83623907 6.41339932,7.09036925 C6.41339932,3.34921965 9.441949,0.320669966 13.1830986,0.320669966 Z M5.23760945,13.2543586 L1.06889989,17.4230682 C0.57007994,17.9575181 0.57007994,18.777008 1.06889989,19.275828 C1.56771983,19.7746479 2.42283974,19.7746479 2.92165969,19.275828 L2.92165969,19.275828 L7.09036925,15.1071184 L5.23760945,13.2543586 Z M13.1830986,1.03326989 C9.83387896,1.03326989 7.12599925,3.74114961 7.12599925,7.09036925 C7.12599925,10.4395889 9.83387896,13.1474686 13.1830986,13.1474686 C16.5323183,13.1474686 19.240198,10.4395889 19.240198,7.09036925 C19.240198,3.74114961 16.5323183,1.03326989 13.1830986,1.03326989 Z"></path>
                    </g>
                </g>
            </g>
        </g>
    </g>
</svg>