<?xml version="1.0" encoding="UTF-8"?>
<svg width="26px" height="26px" viewBox="0 0 26 26" version="1.1" xmlns="http://www.w3.org/2000/svg" xmlns:xlink="http://www.w3.org/1999/xlink">
    <title>Group</title>
    <g id="\f1 \'d2\'bd\'c9\'fa\f0 " stroke="none" stroke-width="1" fill="none" fill-rule="evenodd">
        <g id="\f1 \'d2\'bd\'c9\'fa\'b7\'a2\'b4\'a6\'b7\'bd\f0 " transform="translate(-395.000000, -586.000000)">
            <rect id="\f1 \'be\'d8\'d0\'ce\f0 " stroke="#979797" fill="#FFFFFF" fill-rule="nonzero" x="228" y="61" width="641" height="741"></rect>
            <g id="Group" transform="translate(395.000000, 586.000000)">
                <rect id="Rectangle" x="0" y="0" width="26" height="26"></rect>
                <g transform="translate(5.055556, 2.527778)" fill="#000000" fill-rule="nonzero" id="Shape">
                    <path d="M3.34644491,0.356999696 L3.50277778,0.361111112 C4.29722223,0.397222223 4.91111112,0.975000001 5.09166667,1.73333334 L5.09166667,1.73333334 L12.8555556,1.73333334 C13.4333334,1.73333334 13.9388889,2.20277778 13.9388889,2.81666667 L13.9388889,2.81666667 L13.9388889,3.53888889 L14.6611111,3.53888889 C15.2388889,3.53888889 15.7444445,4.04444445 15.6722222,4.62222223 L15.6722222,4.62222223 L15.6722222,19.5 C15.6722222,20.0777778 15.2027778,20.5833334 14.5888889,20.5833334 L14.5888889,20.5833334 L2.99722223,20.5833334 C2.41944445,20.5833334 1.91388889,20.1138889 1.91388889,19.5 L1.91388889,19.5 L1.91388889,18.7777778 L1.19166667,18.7777778 C0.61388889,18.7777778 0.108333333,18.3083334 0.108333333,17.6944445 L0.108333333,17.6944445 L0.108333333,2.81666667 C0.108333333,2.23888889 0.577777779,1.73333334 1.19166667,1.73333334 L1.19166667,1.73333334 L1.69722222,1.73333334 C1.76944445,1.37222222 1.95,1.08333333 2.20277778,0.830555557 C2.56388889,0.505555556 3.03333334,0.325 3.50277778,0.361111112 Z M14.625,4.26111112 L13.9027778,4.26111112 L13.9027778,17.6944445 C13.9027778,18.2722222 13.4333334,18.7777778 12.8194445,18.7777778 L12.8194445,18.7777778 L2.67222223,18.7777778 L2.67222223,19.5 C2.67222223,19.6805556 2.81666667,19.8611111 3.03333334,19.8611111 L3.03333334,19.8611111 L14.6611111,19.8611111 C14.8416667,19.8611111 15.0222222,19.7166667 15.0222222,19.5 L15.0222222,19.5 L14.9861111,19.5 L14.9861111,4.62222223 C14.9861111,4.44166667 14.8416667,4.26111112 14.625,4.26111112 L14.625,4.26111112 Z M4.44166667,2.45555556 L1.22777778,2.45555556 C1.04722222,2.45555556 0.866666668,2.6 0.866666668,2.81666667 L0.866666668,2.81666667 L0.866666668,17.6944445 C0.866666668,17.875 1.04722222,18.0555556 1.22777778,18.0555556 L1.22777778,18.0555556 L12.8555556,18.0555556 C13.0361111,18.0555556 13.2166667,17.9111111 13.2166667,17.6944445 L13.2166667,17.6944445 L13.2166667,2.81666667 C13.2166667,2.63611111 13.0722222,2.45555556 12.8555556,2.45555556 L12.8555556,2.45555556 L5.1638889,2.45555556 L5.1638889,4.76666667 C5.1638889,5.34444445 4.69444445,5.8138889 4.11666667,5.8138889 C3.53888889,5.8138889 3.06944445,5.34444445 3.06944445,4.76666667 L3.06944445,4.76666667 L3.06944445,3.90000001 C3.06944445,3.68333334 3.21388889,3.53888889 3.43055556,3.53888889 C3.64722223,3.53888889 3.79166667,3.68333334 3.79166667,3.90000001 L3.79166667,3.90000001 L3.79166667,4.76666667 C3.79166667,4.94722223 3.93611112,5.09166667 4.11666667,5.09166667 C4.29722223,5.09166667 4.44166667,4.94722223 4.44166667,4.76666667 L4.44166667,4.76666667 L4.44166667,2.45555556 Z M3.50277778,1.08333333 C3.21388889,1.08333333 2.96111112,1.19166667 2.74444445,1.37222222 C2.63611111,1.48055556 2.56388889,1.58888889 2.52777778,1.73333334 L2.52777778,1.73333334 L4.36944445,1.73333334 C4.22500001,1.37222222 3.90000001,1.11944445 3.50277778,1.08333333 Z"></path>
                    <path d="M10.2916667,15.4916667 C10.5083333,15.4916667 10.6888889,15.6361111 10.6888889,15.8527778 C10.6888889,16.0694445 10.5444445,16.2138889 10.3277778,16.2138889 L10.3277778,16.2138889 L3.79166667,16.2138889 C3.575,16.2138889 3.43055556,16.0694445 3.43055556,15.8527778 C3.43055556,15.6361111 3.575,15.4916667 3.79166667,15.4916667 L3.79166667,15.4916667 Z M10.2916667,13.6861111 C10.5083333,13.6861111 10.6888889,13.8305556 10.6888889,14.0472222 C10.6888889,14.2638889 10.5444445,14.4083334 10.3277778,14.4083334 L10.3277778,14.4083334 L3.79166667,14.4083334 C3.575,14.4083334 3.43055556,14.2638889 3.43055556,14.0472222 C3.43055556,13.8305556 3.575,13.6861111 3.79166667,13.6861111 L3.79166667,13.6861111 Z M7.00555557,5.66944445 C7.65555557,5.66944445 8.19722223,6.21111112 8.19722223,6.86111112 L8.19722223,6.86111112 L8.19722223,7.69166668 L9.02777779,7.69166668 C9.67777779,7.69166668 10.2194445,8.23333334 10.2194445,8.88333335 C10.2194445,9.53333335 9.67777779,10.075 9.02777779,10.075 L9.02777779,10.075 L8.19722223,10.075 L8.19722223,10.9055556 C8.19722223,11.5555556 7.65555557,12.0972222 7.00555557,12.0972222 C6.35555556,12.0972222 5.8138889,11.5555556 5.8138889,10.9055556 L5.8138889,10.9055556 L5.8138889,10.075 L4.98333334,10.075 C4.33333334,10.075 3.79166667,9.53333335 3.79166667,8.88333335 C3.79166667,8.23333334 4.33333334,7.69166668 4.98333334,7.69166668 L4.98333334,7.69166668 L5.8138889,7.69166668 L5.8138889,6.86111112 C5.8138889,6.21111112 6.35555556,5.66944445 7.00555557,5.66944445 Z M7.00555557,6.35555556 C6.75277779,6.35555556 6.53611112,6.57222223 6.53611112,6.82500001 L6.53611112,6.82500001 L6.53611112,8.01666668 C6.53611112,8.23333334 6.39166668,8.37777779 6.17500001,8.37777779 L6.17500001,8.37777779 L4.98333334,8.37777779 C4.73055556,8.37777779 4.5138889,8.59444446 4.5138889,8.84722223 C4.5138889,9.10000001 4.73055556,9.31666668 4.98333334,9.31666668 L4.98333334,9.31666668 L6.17500001,9.31666668 C6.39166668,9.31666668 6.53611112,9.46111112 6.53611112,9.67777779 L6.53611112,9.67777779 L6.53611112,10.8694445 C6.53611112,11.1222222 6.75277779,11.3388889 7.00555557,11.3388889 C7.25833334,11.3388889 7.47500001,11.1222222 7.47500001,10.8694445 L7.47500001,10.8694445 L7.47500001,9.67777779 C7.47500001,9.46111112 7.61944446,9.31666668 7.83611112,9.31666668 L7.83611112,9.31666668 L9.02777779,9.31666668 C9.28055557,9.31666668 9.49722224,9.10000001 9.49722224,8.84722223 C9.49722224,8.59444446 9.28055557,8.37777779 9.02777779,8.37777779 L9.02777779,8.37777779 L7.83611112,8.37777779 C7.61944446,8.37777779 7.47500001,8.23333334 7.47500001,8.01666668 L7.47500001,8.01666668 L7.47500001,6.82500001 C7.47500001,6.57222223 7.25833334,6.35555556 7.00555557,6.35555556 Z"></path>
                </g>
            </g>
        </g>
    </g>
</svg>